<?xml version="1.0" standalone="no"?>
<!DOCTYPE svg PUBLIC "-//W3C//DTD SVG 20010904//EN"
 "http://www.w3.org/TR/2001/REC-SVG-20010904/DTD/svg10.dtd">
<svg version="1.0" xmlns="http://www.w3.org/2000/svg"
 width="1024.000000pt" height="1024.000000pt" viewBox="0 0 1024.000000 1024.000000"
 preserveAspectRatio="xMidYMid meet">

<g transform="translate(0.000000,1024.000000) scale(0.100000,-0.100000)"
fill="#000000" stroke="none">
<path d="M0 5120 l0 -5120 5120 0 5120 0 0 5120 0 5120 -5120 0 -5120 0 0
-5120z m5233 4509 c68 -18 77 -47 77 -239 0 -234 -8 -245 -185 -245 -53 0
-103 6 -122 13 -50 22 -58 55 -58 244 l0 167 29 30 c16 16 38 32 50 34 44 9
173 6 209 -4z m-1480 -350 c55 -43 59 -159 7 -211 l-28 -28 -221 0 -221 0 0
-692 c0 -381 -5 -737 -10 -790 -35 -355 -242 -545 -643 -588 -118 -12 -284 0
-397 31 -175 46 -400 192 -441 285 -18 41 -20 65 -17 365 l3 321 27 23 c52 44
174 45 226 0 l27 -23 3 -292 3 -291 60 -39 c131 -85 326 -118 522 -90 129 19
241 90 290 185 52 101 51 88 54 867 l4 727 -366 3 -367 3 -24 28 c-20 24 -24
39 -24 95 0 73 15 107 54 122 11 5 343 9 737 9 708 1 717 1 742 -20z m3653
-470 c102 -38 177 -127 220 -257 l20 -64 40 69 c52 91 163 202 239 239 55 26
69 29 165 29 89 0 113 -4 157 -24 62 -28 150 -116 182 -184 55 -114 55 -106
58 -749 l4 -598 75 0 c134 0 170 -34 162 -151 -4 -52 -9 -66 -32 -86 -27 -22
-32 -23 -227 -23 -117 0 -208 4 -219 10 -45 24 -45 22 -50 720 l-5 665 -25 50
c-43 87 -145 119 -237 74 -94 -46 -173 -169 -220 -347 -26 -96 -27 -103 -31
-504 l-4 -408 71 0 c131 0 167 -35 159 -151 -4 -52 -9 -66 -32 -86 -26 -22
-32 -23 -222 -23 -114 0 -203 4 -214 10 -45 24 -45 22 -50 720 l-5 665 -25 50
c-19 38 -35 55 -70 73 -87 44 -173 21 -253 -68 -59 -65 -101 -152 -134 -278
-26 -96 -27 -103 -31 -504 l-4 -408 66 0 c126 0 162 -36 154 -151 -4 -52 -9
-66 -32 -86 l-27 -23 -330 0 c-218 0 -337 4 -351 11 -41 22 -61 119 -37 187
16 46 59 62 173 62 l96 0 0 629 0 629 -110 4 c-103 3 -111 5 -136 30 -32 31
-43 106 -24 162 19 60 42 66 255 66 195 0 232 -7 251 -47 5 -10 11 -73 14
-141 l5 -122 45 77 c75 130 188 229 300 264 52 16 167 10 226 -12z m-2152 -29
c57 -21 56 -4 56 -790 l0 -720 325 0 c359 0 385 -4 406 -57 6 -15 9 -57 7 -92
-4 -55 -8 -67 -32 -87 l-27 -24 -809 0 c-572 0 -816 3 -833 11 -34 15 -47 49
-47 120 0 127 5 129 405 129 l315 0 0 630 0 629 -275 3 -275 3 -25 25 c-31 32
-43 109 -25 164 21 65 22 65 437 66 213 0 382 -4 397 -10z m-1802 -4808 l23
-23 5 -522 5 -522 35 50 c54 79 170 186 256 236 121 71 189 91 325 97 199 8
333 -41 445 -161 63 -67 114 -170 140 -277 16 -66 18 -140 22 -597 l4 -523 91
-1 c51 -1 103 -4 116 -8 40 -11 62 -51 64 -112 1 -67 -16 -113 -49 -128 -17
-7 -140 -11 -389 -11 l-364 0 -27 24 c-24 20 -28 32 -32 87 -8 125 23 149 193
149 l106 0 -3 503 c-4 449 -6 508 -22 557 -49 148 -149 220 -309 220 -193 0
-406 -145 -509 -345 -85 -166 -98 -254 -98 -657 l0 -278 105 0 c170 0 200 -24
193 -149 -4 -55 -8 -67 -32 -87 l-27 -24 -364 0 c-249 0 -372 4 -389 11 -33
15 -49 57 -48 126 0 63 23 103 63 114 13 4 66 7 117 8 l92 1 0 1005 0 1005
-100 0 c-109 0 -161 14 -179 48 -6 12 -11 51 -11 87 0 60 3 69 30 96 l29 30
235 -3 c230 -3 236 -4 258 -26z m-1674 -188 c107 -21 242 -89 320 -159 l62
-57 0 77 c0 129 33 160 161 153 63 -3 74 -7 95 -31 12 -15 26 -46 29 -69 3
-24 5 -194 3 -378 -3 -359 -4 -366 -55 -389 -13 -6 -57 -11 -98 -11 -63 0 -78
4 -100 23 -24 20 -28 34 -36 112 -10 97 -37 192 -69 240 -36 55 -110 122 -168
153 -91 48 -163 65 -287 65 -138 1 -207 -13 -315 -66 -202 -98 -345 -314 -396
-594 -21 -118 -20 -369 1 -488 49 -277 184 -487 377 -584 252 -127 635 -79
933 118 92 60 127 65 176 24 68 -57 89 -158 43 -212 -57 -68 -268 -176 -439
-226 -249 -72 -533 -77 -728 -13 -146 47 -260 119 -372 233 -216 220 -326 561
-312 965 11 291 72 507 200 704 71 107 132 173 228 245 113 86 256 149 386
171 84 14 279 11 361 -6z m4728 -505 c32 -6 90 -20 129 -31 339 -99 551 -387
590 -799 8 -80 -10 -134 -50 -149 -17 -6 -294 -10 -747 -10 l-721 0 7 -69 c22
-242 154 -413 372 -485 127 -41 380 -37 569 9 111 27 240 74 283 101 13 9 41
22 63 30 72 25 126 -16 159 -120 17 -52 0 -107 -43 -140 -76 -57 -300 -132
-502 -166 -141 -24 -369 -29 -488 -11 -304 48 -534 221 -645 486 -59 142 -88
363 -72 539 16 161 48 266 124 399 126 221 320 354 606 415 62 14 294 14 366
1z m2553 -5 c97 -24 193 -78 250 -140 62 -67 93 -122 128 -220 l28 -79 3 -552
3 -553 95 0 c103 0 155 -15 173 -48 14 -27 14 -134 0 -165 -6 -14 -22 -30 -36
-36 -33 -15 -733 -15 -766 0 -14 6 -30 22 -36 36 -14 31 -14 138 0 165 18 34
70 48 184 48 l105 0 0 438 c0 501 -7 589 -51 679 -33 69 -93 127 -148 144 -62
18 -158 22 -223 9 -167 -32 -342 -173 -425 -340 -80 -160 -86 -198 -91 -587
l-4 -343 106 0 c169 0 203 -26 194 -151 -4 -52 -9 -66 -32 -86 l-27 -23 -375
0 -375 0 -24 24 c-45 45 -42 169 6 212 17 16 40 20 130 22 l109 4 0 628 0 628
-130 3 c-116 4 -132 6 -151 25 -47 47 -43 169 7 212 26 23 28 23 260 20 299
-4 277 11 284 -201 l5 -152 38 50 c127 168 286 282 451 325 91 24 246 26 335
4z"/>
<path d="M6235 3009 c-149 -14 -263 -67 -360 -170 -35 -38 -74 -88 -86 -111
-21 -42 -59 -144 -59 -160 0 -4 266 -8 590 -8 l590 0 -6 28 c-72 306 -306 454
-669 421z"/>
</g>
</svg>
